# xmcd
#
# Track frame offsets: 
#        150
#        11945
#        23212
#        39115
#        48400
#        60837
#        72685
#        86770
#        98755
#        109775
#        120175
#        131095
#
# Disc length: 1932 seconds
#
# Revision: 0
# Processed by: cddbd v1.5.2PL0 Copyright (c) Steve Scherf et al.
# Submitted via: ExactAudioCopy v0.99pb4
#
DISCID=98078a0c
DTITLE=牯嶺街少年合唱團 - 牯嶺街少年殺人事件
DYEAR=1990
DGENRE=Soundtrack
TTITLE0=Why
TTITLE1=Poor Little Fool
TTITLE2=Angel Baby
TTITLE3=Don't Be Cruel
TTITLE4=Mr Blue
TTITLE5=Why (Guitar Instrumental)
TTITLE6=Are You Lonesome Tonight
TTITLE7=The Magic Moment
TTITLE8=Only The Lonely
TTITLE9=Never Be Anyone Eles But You
TTITLE10=Paggy Sue
TTITLE11=Are You Lonesome Tonight (Guitar Instrumental)
EXTD=
EXTT0=
EXTT1=
EXTT2=
EXTT3=
EXTT4=
EXTT5=
EXTT6=
EXTT7=
EXTT8=
EXTT9=
EXTT10=
EXTT11=
PLAYORDER=
